<svg viewBox="0 0 331.64 181.27" xmlns="http://www.w3.org/2000/svg"><path d="m146.54 9.85 22.17-3.91v145.57l-22.17 3.91zm-14.54 76.49a54.3 54.3 0 0 1 6.43 37.38c-4.3 24.36-23.78 42.74-45.3 42.74a38.51 38.51 0 0 1 -6.69-.59c-23.83-4.2-39.29-30-34.45-57.4 4.3-24.36 23.77-42.73 45.3-42.73a38.62 38.62 0 0 1 6.7.58c11.56 2.04 21.51 9.15 28.01 20.02zm-32.4 4.34a19.36 19.36 0 0 0 -3.3-.29c-10.72 0-20.43 9.39-22.58 21.84a28.24 28.24 0 0 0 3.22 19.15 20.28 20.28 0 0 0 13.87 10.13 19.27 19.27 0 0 0 3.3.29c10.72 0 20.42-9.39 22.58-21.84 2.41-13.96-5.25-27.15-17.09-29.28zm80.65 58.8 22.18-3.91v-145.57l-22.18 3.91zm33.75-102.65v96.7l22.17-3.91v-96.7zm0-11.73 22.17-3.91v-22.19l-22.17 3.92zm-205.79 48.01a9.92 9.92 0 0 0 -8.21 9.78v88.38l22.18-3.91v-74.2l26.6-4.69v-22.47l-26.61 4.64zm298.73 11 24.16-4.26a53.75 53.75 0 0 1 -1.61 6.68c-5.17 17-18.23 30.05-33.25 34.41h-.13c-.53.15-1.07.3-1.6.43h-.2c-.53.13-1.05.24-1.58.35h-.22c-.53.1-1.07.19-1.61.27h-.15a37.75 37.75 0 0 1 -5.32.38 38.63 38.63 0 0 1 -6.7-.59c-23.84-4.21-39.3-30-34.46-57.41 4.3-24.37 23.78-42.75 45.31-42.75a38.83 38.83 0 0 1 6.71.59 39.76 39.76 0 0 1 5 1.22h.11c.78.25 1.55.52 2.32.82h.06c9.4 3.7 17.21 11 22.27 21.06a36 36 0 0 1 2.31 5.86c.56 1.82 1.34 4.8 1.58 6.2.06.31.61 3.21 1 7 .23 2.18.62 5 .73 7.53l-63.9 11.26h-.29c.27.74.55 1.45.88 2.14a20.87 20.87 0 0 0 3.45 5.16l.66.69.46.45a31.1 31.1 0 0 0 2.55 2.16 18.1 18.1 0 0 0 4.14 2.31c.39.15.78.3 1.18.43l.56.17c.58.16 1.12.3 1.71.41 0 0 .83.14 1.7.24a15.11 15.11 0 0 0 1.64.13h.11a21.79 21.79 0 0 0 16.32-7.55c.17-.18.32-.37.48-.55l.44-.54a27.69 27.69 0 0 0 3.17-4.91zm-39.5-21.11 39.48-7-.06-.18c-1.83-5.2-8.94-13.32-21.07-11.47s-16.49 12.01-17.79 16.08a16.59 16.59 0 0 0 -.56 2.57z" fill="#e03e52"/></svg>